<svg xmlns="http://www.w3.org/2000/svg" width="110" height="49" viewBox="0 0 110 49">
    <g fill="none" fill-rule="evenodd">
        <path fill="#00D137" d="M5.55 26.12c.678 0 1.586.75 2.209 1.824.384.66.613 1.355.642 1.956.025.539-.117.94-.396 1.1a.67.67 0 0 1-.333.083c-.676 0-1.585-.749-2.208-1.822-.385-.662-.613-1.357-.642-1.957-.027-.54.117-.941.396-1.1a.652.652 0 0 1 .333-.084zm0 5.73c.678 0 1.586.75 2.209 1.824.384.662.613 1.356.642 1.955.025.542-.117.941-.396 1.102a.675.675 0 0 1-.333.083c-.676 0-1.585-.75-2.208-1.823-.385-.661-.613-1.356-.642-1.955-.027-.54.117-.942.396-1.102a.655.655 0 0 1 .333-.083zm0-11.388c.678 0 1.586.75 2.209 1.823.384.662.613 1.355.642 1.957.025.539-.117.94-.396 1.1a.67.67 0 0 1-.333.083c-.676 0-1.585-.75-2.208-1.823-.385-.662-.613-1.357-.642-1.956-.027-.54.117-.941.396-1.1a.655.655 0 0 1 .333-.084zm4.965 8.487c.676 0 1.585.75 2.207 1.823.385.662.613 1.356.642 1.956.027.54-.117.941-.395 1.1a.661.661 0 0 1-.334.084c-.676 0-1.585-.75-2.208-1.822-.383-.663-.613-1.357-.642-1.957-.026-.54.118-.94.396-1.1a.67.67 0 0 1 .334-.084zm0 5.73c.676 0 1.585.75 2.207 1.825.385.66.613 1.355.642 1.955.027.54-.117.942-.395 1.102a.676.676 0 0 1-.334.082c-.676 0-1.585-.75-2.208-1.823-.383-.662-.613-1.356-.642-1.955-.026-.541.118-.942.396-1.102a.66.66 0 0 1 .334-.083zm0-11.388c.676 0 1.585.749 2.207 1.823.385.662.613 1.357.642 1.956.027.54-.117.942-.395 1.1a.654.654 0 0 1-.334.084c-.676 0-1.585-.75-2.208-1.823-.383-.662-.613-1.356-.642-1.956-.026-.54.118-.941.396-1.1a.664.664 0 0 1 .334-.084zm-9.781-.072c.676 0 1.585.75 2.207 1.823.385.66.612 1.356.643 1.955.026.54-.118.942-.397 1.101a.65.65 0 0 1-.333.085c-.677 0-1.584-.752-2.207-1.825-.385-.66-.614-1.355-.644-1.956-.026-.54.12-.941.397-1.1a.66.66 0 0 1 .334-.083zm0 5.73c.676 0 1.585.75 2.207 1.823.385.662.612 1.356.643 1.956.026.54-.118.941-.397 1.1a.656.656 0 0 1-.333.084c-.677 0-1.584-.75-2.207-1.822-.385-.663-.614-1.357-.644-1.957-.026-.54.12-.941.397-1.101a.676.676 0 0 1 .334-.083zm0-11.388c.676 0 1.585.749 2.207 1.823.385.66.612 1.356.643 1.955.026.54-.118.941-.397 1.101a.662.662 0 0 1-.333.083c-.677 0-1.584-.75-2.207-1.822-.385-.663-.614-1.356-.644-1.957-.026-.54.12-.94.397-1.1a.661.661 0 0 1 .334-.083z"/>
        <path fill="#FF3296" d="M14.44 13.91c1.51 0 2.785.603 2.785 1.315 0 .716-1.274 1.319-2.784 1.319h-.001c-1.512 0-2.786-.603-2.786-1.318 0-.32.276-.644.76-.89.538-.276 1.257-.426 2.026-.426zm4.994 2.865c1.51 0 2.787.603 2.787 1.316 0 .715-1.276 1.318-2.787 1.318s-2.786-.603-2.786-1.318c0-.713 1.275-1.316 2.786-1.316zM9.509 11.08c1.511 0 2.787.603 2.787 1.318 0 .713-1.276 1.316-2.786 1.316-1.512 0-2.787-.603-2.787-1.316 0-.32.277-.645.76-.892.538-.275 1.258-.426 2.026-.426zm9.878 2.605c-1.51 0-2.787-.602-2.787-1.316 0-.713 1.277-1.316 2.787-1.316 1.511 0 2.786.603 2.786 1.316 0 .319-.276.644-.76.89-.538.275-1.257.426-2.026.426zm4.995.23c1.51 0 2.786.606 2.786 1.318 0 .714-1.276 1.317-2.786 1.317-1.512 0-2.788-.603-2.788-1.317 0-.32.277-.644.762-.891.538-.274 1.256-.426 2.026-.426zm-9.925-3.058c-1.511 0-2.788-.603-2.788-1.317 0-.715 1.277-1.317 2.788-1.317 1.51 0 2.786.602 2.786 1.317 0 .714-1.277 1.317-2.786 1.317zm-4.954 8.381v.217-.217c-.769 0-1.488-.151-2.027-.425-.483-.248-.76-.572-.76-.892 0-.32.277-.645.76-.892.539-.274 1.258-.426 2.028-.426 1.51 0 2.785.604 2.785 1.318 0 .714-1.275 1.317-2.786 1.317zm2.207 1.548c0-.714 1.275-1.317 2.787-1.317 1.51 0 2.786.603 2.786 1.317 0 .32-.277.645-.761.891-.537.275-1.258.426-2.025.426-1.512 0-2.787-.603-2.787-1.317zM4.572 16.41v.218-.218c-1.511 0-2.787-.603-2.787-1.317 0-.715 1.276-1.318 2.787-1.318 1.51 0 2.787.603 2.787 1.318 0 .714-1.277 1.317-2.787 1.317z"/>
        <path fill="#FFE100" d="M23.571 26.13c.279.161.423.562.396 1.102-.03.6-.258 1.294-.642 1.956-.624 1.073-1.532 1.823-2.207 1.823a.676.676 0 0 1-.335-.083c-.279-.16-.422-.561-.395-1.102.03-.6.257-1.293.642-1.955.623-1.074 1.531-1.824 2.207-1.824.126 0 .237.028.334.084zm0-5.73c.279.16.423.562.396 1.101-.03.6-.258 1.294-.642 1.956-.624 1.074-1.532 1.823-2.207 1.823a.666.666 0 0 1-.335-.083c-.279-.159-.422-.561-.395-1.101.03-.6.257-1.295.642-1.955.623-1.074 1.531-1.824 2.207-1.824a.66.66 0 0 1 .334.084zm0 11.389c.279.16.423.561.396 1.101-.03.6-.258 1.294-.642 1.956-.624 1.073-1.532 1.823-2.207 1.823a.673.673 0 0 1-.335-.083c-.279-.16-.422-.562-.395-1.101.03-.6.257-1.295.642-1.956.623-1.073 1.531-1.823 2.207-1.823.126 0 .237.028.334.083zm4.963-8.487c.278.159.423.56.397 1.1-.03.6-.259 1.296-.643 1.956-.623 1.073-1.53 1.825-2.207 1.825a.655.655 0 0 1-.334-.085c-.28-.159-.422-.56-.396-1.101.03-.6.258-1.294.643-1.955.623-1.075 1.53-1.823 2.207-1.823a.66.66 0 0 1 .333.083zm0-5.73c.278.16.423.56.397 1.1-.03.6-.259 1.294-.643 1.956-.623 1.073-1.53 1.823-2.207 1.823a.662.662 0 0 1-.334-.083c-.28-.16-.422-.562-.396-1.1.03-.6.258-1.296.643-1.957.623-1.073 1.53-1.823 2.207-1.823a.66.66 0 0 1 .333.083zm0 11.388c.278.16.423.561.397 1.1-.03.6-.259 1.295-.643 1.957-.623 1.072-1.53 1.822-2.207 1.822a.665.665 0 0 1-.334-.082c-.28-.16-.422-.56-.396-1.101.03-.6.258-1.294.643-1.956.623-1.074 1.53-1.823 2.207-1.823.125 0 .237.028.333.083zm-9.78.073c.278.16.422.56.396 1.1-.03.6-.258 1.294-.642 1.957-.625 1.072-1.533 1.822-2.209 1.822a.66.66 0 0 1-.333-.083c-.278-.16-.423-.56-.396-1.1.03-.6.258-1.295.642-1.957.623-1.073 1.532-1.823 2.207-1.823.126 0 .238.03.334.084zm0-5.731c.278.159.422.56.396 1.1-.03.6-.258 1.296-.642 1.956-.625 1.074-1.533 1.825-2.209 1.825a.655.655 0 0 1-.333-.085c-.278-.159-.423-.56-.396-1.101.03-.6.258-1.294.642-1.955.623-1.073 1.532-1.823 2.207-1.823.126 0 .238.028.334.083zm0 11.388c.278.16.422.562.396 1.102-.03.6-.258 1.294-.642 1.956-.625 1.072-1.533 1.822-2.209 1.822a.665.665 0 0 1-.333-.082c-.278-.16-.423-.562-.396-1.1.03-.601.258-1.297.642-1.957.623-1.074 1.532-1.824 2.207-1.824.126 0 .238.028.334.083z"/>
        <path fill="#FF7C33" d="M29.935 40.663c1.042 0 2.012.295 2.47.752.17.17.256.347.256.53-.004.625-1.115 1.3-2.766 1.307h-.024c-1.043 0-2.012-.295-2.47-.751-.17-.17-.257-.349-.256-.53.004-.703 1.27-1.302 2.765-1.308h.025zm4.933 2.802c1.042 0 2.013.295 2.47.751.17.171.256.35.254.53-.002.703-1.268 1.303-2.763 1.309h-.026c-1.041 0-2.012-.294-2.469-.752-.171-.17-.257-.348-.255-.53 0-.703 1.269-1.301 2.763-1.308h.026zm-9.802-5.57c1.043 0 2.012.296 2.469.752.17.17.256.348.255.53-.004.702-1.269 1.302-2.765 1.307l-.025.001c-1.042 0-2.012-.296-2.47-.752-.17-.17-.256-.349-.255-.53.003-.702 1.269-1.302 2.764-1.307h.027zm9.78-.069c1.042 0 2.011.295 2.47.752.17.17.255.349.254.529-.002.703-1.268 1.302-2.764 1.309h-.024c-1.043 0-2.013-.295-2.471-.752-.17-.17-.256-.348-.254-.53.002-.703 1.268-1.302 2.764-1.308h.025zm4.933 2.803c1.042 0 2.012.295 2.47.751.17.17.256.349.255.53-.003.703-1.269 1.301-2.765 1.308h-.025c-1.043 0-2.011-.295-2.47-.752-.17-.17-.257-.349-.256-.53.003-.701 1.27-1.3 2.766-1.307h.025zm-9.804-5.57c1.043 0 2.013.295 2.47.753.17.17.257.347.256.528-.004.703-1.27 1.303-2.765 1.31h-.024c-1.043 0-2.013-.297-2.47-.753-.171-.17-.256-.347-.256-.529.004-.704 1.268-1.303 2.764-1.309h.025zm-4.94 8.28c1.043 0 2.012.296 2.468.752.171.171.257.347.257.53-.003.703-1.27 1.301-2.766 1.308h-.025c-1.041 0-2.012-.295-2.469-.751-.17-.17-.257-.348-.254-.53.002-.703 1.268-1.303 2.764-1.309h.026zm4.933 2.804c1.042 0 2.01.295 2.469.751.17.17.256.348.256.53-.004.702-1.27 1.301-2.765 1.307h-.023c-1.044 0-2.015-.295-2.472-.752-.17-.17-.257-.347-.256-.528.003-.704 1.27-1.303 2.765-1.308h.026zm-9.804-5.57c1.043 0 2.012.294 2.47.751.17.17.256.347.256.529-.003.703-1.27 1.302-2.766 1.309H20.1c-1.042 0-2.013-.296-2.47-.752-.17-.17-.256-.348-.256-.529.003-.703 1.27-1.302 2.766-1.308h.024z"/>
        <path fill="#59E6FF" d="M7.449 4.501c0 2.044-1.667 3.7-3.724 3.7C1.668 8.202 0 6.546 0 4.502 0 2.457 1.668.8 3.725.8c2.057 0 3.724 1.657 3.724 3.701"/>
        <g fill="#191C20">
            <path d="M55.487 23.894l-.001-.037.01-6.276-1.598-.003-.01 6.754h-.02c-.21 2.457-2.279 4.357-4.78 4.352-2.502-.004-4.564-1.912-4.764-4.368h-.012l-.01-.169.012-6.584-1.6-.003-.011 6.354c-.005 3.502 2.857 6.357 6.382 6.364 3.524.006 6.399-2.84 6.404-6.343 0-.014 0-.029-.002-.04M74.723 19.189c2.5.005 4.559 1.908 4.759 4.361h.01l.01.17-.012 6.574 1.598.003.01-6.344c.006-3.498-2.852-6.35-6.371-6.356a6.36 6.36 0 0 0-5.445 3.019l-.146.234-.145-.235a6.358 6.358 0 0 0-5.432-3.037c-3.52-.005-6.39 2.837-6.395 6.335l-.01 6.345 1.597.002.01-6.745h.021c.21-2.451 2.276-4.348 4.773-4.344 2.498.004 4.557 1.907 4.758 4.36h.01l.01.247v.154l-.011 6.344 1.597.002.012-6.744h.02c.209-2.454 2.275-4.35 4.772-4.345M103.466 28.699c-2.638-.003-4.774-2.133-4.77-4.755.005-2.622 2.147-4.744 4.785-4.74 2.64.005 4.775 2.134 4.77 4.756-.003 2.621-2.146 4.744-4.785 4.739m.018-11.092c-3.525-.005-6.388 2.832-6.394 6.334-.006 3.503 2.848 6.35 6.374 6.356 3.525.006 6.388-2.831 6.394-6.334.005-3.504-2.849-6.35-6.374-6.356M89.259 28.676c-2.625-.005-4.75-2.113-4.767-4.718h.006v-.165c.072-2.564 2.183-4.617 4.778-4.613 2.639.004 4.773 2.135 4.77 4.756-.005 2.623-2.147 4.744-4.787 4.74m.018-11.092a6.38 6.38 0 0 0-4.772 2.125l.004-2.095-1.615-.004-.01 6.346h.001c.014 3.486 2.86 6.312 6.371 6.318 3.527.005 6.39-2.831 6.397-6.335.005-3.503-2.848-6.35-6.376-6.355"/>
        </g>
        <g fill="#191C20">
            <path d="M44.965 38.409c-.607 0-1.13-.206-1.569-.617-.438-.41-.657-.948-.657-1.612 0-.664.229-1.204.686-1.62.457-.417 1.015-.625 1.672-.625s1.213.225 1.668.677l-.543.661c-.377-.326-.758-.49-1.142-.49-.383 0-.716.127-.997.38-.283.253-.424.58-.424.98s.14.739.42 1.016c.279.278.622.417 1.03.417.408 0 .793-.185 1.155-.555l.542.587c-.532.534-1.145.8-1.84.8M48.691 37.196c.26.264.59.396.99.396s.73-.132.99-.396.39-.605.39-1.025c0-.419-.13-.76-.39-1.024s-.59-.396-.99-.396-.73.132-.99.396-.39.605-.39 1.024c0 .42.13.761.39 1.025m2.633.564c-.438.432-.986.649-1.643.649s-1.205-.217-1.643-.65a2.147 2.147 0 0 1-.657-1.588c0-.625.219-1.155.657-1.587.438-.433.986-.65 1.643-.65s1.205.217 1.643.65c.438.432.657.962.657 1.587 0 .626-.219 1.156-.657 1.589M53.945 35.992v2.351h-.92V34h.92v.792c.131-.267.33-.476.595-.629.266-.152.552-.228.859-.228.69 0 1.158.283 1.405.848.432-.565.972-.848 1.618-.848.493 0 .891.15 1.195.449.304.299.456.732.456 1.298v2.661h-.92V35.96c0-.8-.334-1.2-1.002-1.2-.312 0-.585.1-.817.298-.233.199-.355.489-.366.87v2.416h-.92V35.96c0-.413-.074-.717-.222-.91-.148-.193-.38-.29-.698-.29a1.21 1.21 0 0 0-.83.314c-.235.21-.353.516-.353.919M62.259 36.18c0 .413.125.752.377 1.016s.559.396.92.396c.362 0 .677-.13.945-.392.269-.261.403-.6.403-1.016 0-.417-.132-.762-.395-1.037a1.262 1.262 0 0 0-.944-.412 1.21 1.21 0 0 0-.929.412c-.252.275-.377.62-.377 1.033m1.437-2.245c.586 0 1.087.2 1.504.604.416.403.624.938.624 1.608 0 .67-.207 1.214-.62 1.633-.414.42-.896.629-1.446.629-.55 0-1.045-.24-1.483-.719v2.237h-.92V34h.92v.76c.361-.55.835-.825 1.421-.825M69.932 36.351V34h.92v4.343h-.92v-.792a1.634 1.634 0 0 1-.612.629 1.64 1.64 0 0 1-.843.229c-.493 0-.89-.15-1.195-.45-.304-.299-.456-.731-.456-1.298V34h.92v2.384c0 .8.334 1.2 1.003 1.2.317 0 .594-.105.83-.314.235-.21.353-.516.353-.919M73.316 34.735v2.204c0 .207.055.372.164.494.11.122.263.184.46.184.198 0 .387-.096.568-.286l.377.645c-.323.288-.68.433-1.072.433-.391 0-.725-.135-1.002-.405s-.415-.632-.415-1.09v-2.18h-.55V34h.55v-1.364h.92V34h1.15v.735h-1.15zM76.257 35.853h2.506c0-.364-.115-.645-.345-.84a1.267 1.267 0 0 0-.85-.295c-.337 0-.64.102-.908.306a.986.986 0 0 0-.403.829zm3.426.719h-3.426c.022.315.167.57.436.763.268.193.575.29.92.29.547 0 .964-.172 1.249-.515l.525.572c-.47.485-1.084.727-1.84.727a2.197 2.197 0 0 1-1.565-.609c-.43-.405-.645-.95-.645-1.633s.22-1.226.657-1.628a2.213 2.213 0 0 1 1.549-.604c.594 0 1.1.178 1.516.534.416.357.624.848.624 1.474v.629zM82.985 34.857c-.454 0-.796.147-1.026.441-.23.294-.345.689-.345 1.184v1.861h-.92V34h.92v.873a1.9 1.9 0 0 1 .603-.67c.255-.173.525-.263.81-.268l.008.922h-.05zM87.364 38.343L85.606 34h.953l1.33 3.282L89.222 34h.953l-1.758 4.343zM90.905 38.343h.92V34h-.92v4.343zm.057-5.209a.555.555 0 0 1-.172-.408c0-.158.057-.294.172-.408a.563.563 0 0 1 .41-.172c.16 0 .297.058.412.172.115.114.172.25.172.408a.555.555 0 0 1-.172.408.563.563 0 0 1-.411.172.563.563 0 0 1-.41-.172zM96.27 37.045c0 .414-.152.744-.453.992-.3.248-.687.372-1.158.372-.318 0-.648-.058-.99-.172a2.981 2.981 0 0 1-.908-.481l.444-.71c.51.38 1.002.57 1.478.57.209 0 .373-.047.493-.142a.444.444 0 0 0 .181-.364c0-.217-.29-.413-.87-.588a1.015 1.015 0 0 0-.1-.032c-.908-.245-1.363-.653-1.363-1.225 0-.402.157-.725.473-.967.315-.242.724-.363 1.228-.363s.98.146 1.43.44l-.346.678a2.067 2.067 0 0 0-1.158-.351c-.22 0-.398.04-.534.118a.384.384 0 0 0-.206.355c0 .142.072.245.214.31.099.05.237.096.415.14.178.043.335.087.472.13.137.044.27.093.399.147.128.055.267.13.415.229.295.196.443.5.443.914M97.313 38.343h.92V34h-.92v4.343zm.057-5.209a.555.555 0 0 1-.172-.408c0-.158.057-.294.172-.408a.562.562 0 0 1 .41-.172c.16 0 .296.058.412.172.115.114.172.25.172.408a.555.555 0 0 1-.172.408.563.563 0 0 1-.411.172.562.562 0 0 1-.411-.172zM100.586 37.196c.26.264.59.396.99.396s.73-.132.99-.396.39-.605.39-1.025c0-.419-.13-.76-.39-1.024s-.59-.396-.99-.396-.73.132-.99.396-.39.605-.39 1.024c0 .42.13.761.39 1.025m2.633.564c-.438.432-.986.649-1.643.649s-1.205-.217-1.643-.65a2.146 2.146 0 0 1-.657-1.588c0-.625.219-1.155.657-1.587.438-.433.986-.65 1.643-.65s1.205.217 1.643.65c.438.432.657.962.657 1.587 0 .626-.219 1.156-.657 1.589M105.84 35.992v2.351h-.92V34h.92v.792c.148-.267.352-.476.612-.629.26-.152.54-.228.842-.228.493 0 .891.15 1.195.449.304.299.456.732.456 1.298v2.661h-.92V35.96c0-.8-.334-1.2-1.002-1.2a1.21 1.21 0 0 0-.83.314c-.236.21-.353.516-.353.919"/>
        </g>
    </g>
</svg>
